<?xml version="1.0" standalone="no"?>
<?xml-stylesheet href="light.css" type="text/css"?>
<!DOCTYPE svg PUBLIC "-//W3C//DTD SVG 1.1//EN" "http://www.w3.org/Graphics/SVG/1.1/DTD/svg11.dtd">
<svg xmlns="http://www.w3.org/2000/svg" class="railroad-diagram" width="1018" height="178" viewBox="0 0 1018 178"><g transform="translate(.5 .5)"><path d="M 20 45 v 20 m 0 -10 h 20.5"></path><g><path d="M40 55h0"></path><path d="M978 55h0"></path><path d="M40 55h20"></path><g><path d="M60 55h0"></path><path d="M958 55h0"></path><g class="terminal"><path d="M60 55h0"></path><path d="M122 55h0"></path><rect x="60" y="44" width="62" height="22" rx="0" ry="0"></rect><text x="91" y="59">'&lt;&lt;'</text></g><path d="M122 55h10"></path><path d="M132 55h10"></path><g class="terminal"><path d="M142 55h0"></path><path d="M244 55h0"></path><rect x="142" y="44" width="102" height="22" rx="0" ry="0"></rect><text x="193" y="59">'declare'</text></g><path d="M244 55h10"></path><path d="M254 55h10"></path><g class="non-terminal"><path d="M264 55h0"></path><path d="M358 55h0"></path><rect x="264" y="44" width="94" height="22" rx="8" ry="8"></rect><text x="311" y="59">variable</text></g><path d="M358 55h10"></path><g><path d="M368 55h0"></path><path d="M470 55h0"></path><path d="M368 55h20"></path><g><path d="M388 55h0"></path><path d="M450 55h0"></path><g class="terminal"><path d="M388 55h0"></path><path d="M450 55h0"></path><rect x="388" y="44" width="62" height="22" rx="0" ry="0"></rect><text x="419" y="59">'to'</text></g></g><path d="M450 55h20"></path><path d="M368 55a10 10 0 0 1 10 10v26a10 10 0 0 0 10 10"></path><g><path d="M388 101h4"></path><path d="M446 101h4"></path><g class="terminal"><path d="M392 101h0"></path><path d="M446 101h0"></path><rect x="392" y="90" width="54" height="22" rx="0" ry="0"></rect><text x="419" y="105">'='</text></g></g><path d="M450 101a10 10 0 0 0 10 -10v-26a10 10 0 0 1 10 -10"></path></g><path d="M470 55h10"></path><g class="non-terminal"><path d="M480 55h0"></path><path d="M590 55h0"></path><rect x="480" y="44" width="110" height="22" rx="8" ry="8"></rect><text x="535" y="59">expression</text></g><path d="M590 55h10"></path><g><path d="M600 55h0"></path><path d="M886 55h0"></path><path d="M600 55a10 10 0 0 0 10 -10v-15a10 10 0 0 1 10 -10"></path><g><path d="M620 20h246"></path></g><path d="M866 20a10 10 0 0 1 10 10v15a10 10 0 0 0 10 10"></path><path d="M600 55h20"></path><g><path d="M620 55h0"></path><path d="M866 55h0"></path><path d="M620 55h20"></path><g><path d="M640 55h0"></path><path d="M846 55h0"></path><g class="terminal"><path d="M640 55h0"></path><path d="M702 55h0"></path><rect x="640" y="44" width="62" height="22" rx="0" ry="0"></rect><text x="671" y="59">'as'</text></g><path d="M702 55h10"></path><g><path d="M712 55h0"></path><path d="M846 55h0"></path><path d="M712 55h20"></path><g><path d="M732 55h0"></path><path d="M826 55h0"></path><g class="terminal"><path d="M732 55h0"></path><path d="M826 55h0"></path><rect x="732" y="44" width="94" height="22" rx="0" ry="0"></rect><text x="779" y="59">'String'</text></g></g><path d="M826 55h20"></path><path d="M712 55a10 10 0 0 1 10 10v26a10 10 0 0 0 10 10"></path><g><path d="M732 101h0"></path><path d="M826 101h0"></path><g class="terminal"><path d="M732 101h0"></path><path d="M826 101h0"></path><rect x="732" y="90" width="94" height="22" rx="0" ry="0"></rect><text x="779" y="105">'Number'</text></g></g><path d="M826 101a10 10 0 0 0 10 -10v-26a10 10 0 0 1 10 -10"></path><path d="M712 55a10 10 0 0 1 10 10v72a10 10 0 0 0 10 10"></path><g><path d="M732 147h8"></path><path d="M818 147h8"></path><g class="terminal"><path d="M740 147h0"></path><path d="M818 147h0"></path><rect x="740" y="136" width="78" height="22" rx="0" ry="0"></rect><text x="779" y="151">'Bool'</text></g></g><path d="M826 147a10 10 0 0 0 10 -10v-72a10 10 0 0 1 10 -10"></path></g></g><path d="M846 55h20"></path></g><path d="M866 55h20"></path></g><path d="M886 55h10"></path><g class="terminal"><path d="M896 55h0"></path><path d="M958 55h0"></path><rect x="896" y="44" width="62" height="22" rx="0" ry="0"></rect><text x="927" y="59">'&gt;&gt;'</text></g></g><path d="M958 55h20"></path></g><path d="M 978 55 h 20 m 0 -10 v 20"></path></g></svg>