<?xml version="1.0" standalone="no"?>
<?xml-stylesheet href="light.css" type="text/css"?>
<!DOCTYPE svg PUBLIC "-//W3C//DTD SVG 1.1//EN" "http://www.w3.org/Graphics/SVG/1.1/DTD/svg11.dtd">
<svg xmlns="http://www.w3.org/2000/svg" class="railroad-diagram" width="508" height="62" viewBox="0 0 508 62"><g transform="translate(.5 .5)"><path d="M 20 21 v 20 m 0 -10 h 20.5"></path><g><path d="M40 31h0"></path><path d="M468 31h0"></path><path d="M40 31h20"></path><g><path d="M60 31h0"></path><path d="M448 31h0"></path><g class="terminal"><path d="M60 31h0"></path><path d="M122 31h0"></path><rect x="60" y="20" width="62" height="22" rx="0" ry="0"></rect><text x="91" y="35">'&lt;&lt;'</text></g><path d="M122 31h10"></path><path d="M132 31h10"></path><g class="terminal"><path d="M142 31h0"></path><path d="M236 31h0"></path><rect x="142" y="20" width="94" height="22" rx="0" ry="0"></rect><text x="189" y="35">'elseif'</text></g><path d="M236 31h10"></path><path d="M246 31h10"></path><g class="non-terminal"><path d="M256 31h0"></path><path d="M366 31h0"></path><rect x="256" y="20" width="110" height="22" rx="8" ry="8"></rect><text x="311" y="35">expression</text></g><path d="M366 31h10"></path><path d="M376 31h10"></path><g class="terminal"><path d="M386 31h0"></path><path d="M448 31h0"></path><rect x="386" y="20" width="62" height="22" rx="0" ry="0"></rect><text x="417" y="35">'&gt;&gt;'</text></g></g><path d="M448 31h20"></path></g><path d="M 468 31 h 20 m 0 -10 v 20"></path></g></svg>