<?xml version="1.0" standalone="no"?>
<?xml-stylesheet href="light.css" type="text/css"?>
<!DOCTYPE svg PUBLIC "-//W3C//DTD SVG 1.1//EN" "http://www.w3.org/Graphics/SVG/1.1/DTD/svg11.dtd">
<svg xmlns="http://www.w3.org/2000/svg" class="railroad-diagram" width="370" height="62" viewBox="0 0 370 62"><g transform="translate(.5 .5)"><path d="M 20 21 v 20 m 0 -10 h 20.5"></path><g><path d="M40 31h0"></path><path d="M330 31h0"></path><path d="M40 31h20"></path><g><path d="M60 31h0"></path><path d="M310 31h0"></path><g class="terminal"><path d="M60 31h0"></path><path d="M122 31h0"></path><rect x="60" y="20" width="62" height="22" rx="0" ry="0"></rect><text x="91" y="35">'&lt;&lt;'</text></g><path d="M122 31h10"></path><path d="M132 31h10"></path><g class="terminal"><path d="M142 31h0"></path><path d="M228 31h0"></path><rect x="142" y="20" width="86" height="22" rx="0" ry="0"></rect><text x="185" y="35">'endif'</text></g><path d="M228 31h10"></path><path d="M238 31h10"></path><g class="terminal"><path d="M248 31h0"></path><path d="M310 31h0"></path><rect x="248" y="20" width="62" height="22" rx="0" ry="0"></rect><text x="279" y="35">'&gt;&gt;'</text></g></g><path d="M310 31h20"></path></g><path d="M 330 31 h 20 m 0 -10 v 20"></path></g></svg>