<?xml version="1.0" standalone="no"?>
<?xml-stylesheet href="light.css" type="text/css"?>
<!DOCTYPE svg PUBLIC "-//W3C//DTD SVG 1.1//EN" "http://www.w3.org/Graphics/SVG/1.1/DTD/svg11.dtd">
<svg xmlns="http://www.w3.org/2000/svg" class="railroad-diagram" width="422" height="86" viewBox="0 0 422 86"><g transform="translate(.5 .5)"><path d="M 20 21 v 20 m 0 -10 h 20.5"></path><g><path d="M40 31h0"></path><path d="M382 31h0"></path><path d="M40 31h20"></path><g><path d="M60 31h0"></path><path d="M362 31h0"></path><g class="terminal"><path d="M60 31h0"></path><path d="M114 31h0"></path><rect x="60" y="20" width="54" height="22" rx="0" ry="0"></rect><text x="87" y="35">'#'</text></g><path d="M114 31h10"></path><path d="M124 31h10"></path><g><path d="M134 31h0"></path><path d="M256 31h0"></path><path d="M134 31h10"></path><g class="non-terminal"><path d="M144 31h0"></path><path d="M246 31h0"></path><rect x="144" y="20" width="102" height="22" rx="8" ry="8"></rect><text x="195" y="35">any token</text></g><path d="M246 31h10"></path><path d="M144 31a10 10 0 0 0 -10 10v15a10 10 0 0 0 10 10"></path><g><path d="M144 66h102"></path></g><path d="M246 66a10 10 0 0 0 10 -10v-15a10 10 0 0 0 -10 -10"></path></g><path d="M256 31h10"></path><path d="M266 31h10"></path><g class="terminal"><path d="M276 31h0"></path><path d="M362 31h0"></path><rect x="276" y="20" width="86" height="22" rx="0" ry="0"></rect><text x="319" y="35">NEWLINE</text></g></g><path d="M362 31h20"></path></g><path d="M 382 31 h 20 m 0 -10 v 20"></path></g></svg>