<?xml version="1.0" standalone="no"?>
<?xml-stylesheet href="light.css" type="text/css"?>
<!DOCTYPE svg PUBLIC "-//W3C//DTD SVG 1.1//EN" "http://www.w3.org/Graphics/SVG/1.1/DTD/svg11.dtd">
<svg xmlns="http://www.w3.org/2000/svg" class="railroad-diagram" width="1320" height="134" viewBox="0 0 1320 134"><g transform="translate(.5 .5)"><path d="M 20 45 v 20 m 0 -10 h 20.5"></path><g><path d="M40 55h0"></path><path d="M1280 55h0"></path><path d="M40 55h20"></path><g><path d="M60 55h0"></path><path d="M1260 55h0"></path><g class="non-terminal"><path d="M60 55h0"></path><path d="M106 55h0"></path><rect x="60" y="44" width="46" height="22" rx="8" ry="8"></rect><text x="83" y="59">if</text></g><path d="M106 55h10"></path><path d="M116 55h10"></path><g class="terminal"><path d="M126 55h0"></path><path d="M212 55h0"></path><rect x="126" y="44" width="86" height="22" rx="0" ry="0"></rect><text x="169" y="59">NEWLINE</text></g><path d="M212 55h10"></path><path d="M222 55h10"></path><g><path d="M232 55h0"></path><path d="M354 55h0"></path><path d="M232 55h10"></path><g class="non-terminal"><path d="M242 55h0"></path><path d="M344 55h0"></path><rect x="242" y="44" width="102" height="22" rx="8" ry="8"></rect><text x="293" y="59">statement</text></g><path d="M344 55h10"></path><path d="M242 55a10 10 0 0 0 -10 10v15a10 10 0 0 0 10 10"></path><g><path d="M242 90h102"></path></g><path d="M344 90a10 10 0 0 0 10 -10v-15a10 10 0 0 0 -10 -10"></path></g><path d="M354 55h10"></path><g><path d="M364 55h0"></path><path d="M790 55h0"></path><path d="M364 55a10 10 0 0 0 10 -10v-15a10 10 0 0 1 10 -10"></path><g><path d="M384 20h386"></path></g><path d="M770 20a10 10 0 0 1 10 10v15a10 10 0 0 0 10 10"></path><path d="M364 55h20"></path><g><path d="M384 55h0"></path><path d="M770 55h0"></path><path d="M384 55h10"></path><g><path d="M394 55h0"></path><path d="M760 55h0"></path><path d="M394 55h20"></path><g><path d="M414 55h0"></path><path d="M740 55h0"></path><g class="non-terminal"><path d="M414 55h0"></path><path d="M492 55h0"></path><rect x="414" y="44" width="78" height="22" rx="8" ry="8"></rect><text x="453" y="59">elseif</text></g><path d="M492 55h10"></path><path d="M502 55h10"></path><g class="terminal"><path d="M512 55h0"></path><path d="M598 55h0"></path><rect x="512" y="44" width="86" height="22" rx="0" ry="0"></rect><text x="555" y="59">NEWLINE</text></g><path d="M598 55h10"></path><path d="M608 55h10"></path><g><path d="M618 55h0"></path><path d="M740 55h0"></path><path d="M618 55h10"></path><g class="non-terminal"><path d="M628 55h0"></path><path d="M730 55h0"></path><rect x="628" y="44" width="102" height="22" rx="8" ry="8"></rect><text x="679" y="59">statement</text></g><path d="M730 55h10"></path><path d="M628 55a10 10 0 0 0 -10 10v15a10 10 0 0 0 10 10"></path><g><path d="M628 90h102"></path></g><path d="M730 90a10 10 0 0 0 10 -10v-15a10 10 0 0 0 -10 -10"></path></g></g><path d="M740 55h20"></path></g><path d="M760 55h10"></path><path d="M394 55a10 10 0 0 0 -10 10v39a10 10 0 0 0 10 10"></path><g><path d="M394 114h366"></path></g><path d="M760 114a10 10 0 0 0 10 -10v-39a10 10 0 0 0 -10 -10"></path></g><path d="M770 55h20"></path></g><g><path d="M790 55h0"></path><path d="M1180 55h0"></path><path d="M790 55a10 10 0 0 0 10 -10v-15a10 10 0 0 1 10 -10"></path><g><path d="M810 20h350"></path></g><path d="M1160 20a10 10 0 0 1 10 10v15a10 10 0 0 0 10 10"></path><path d="M790 55h20"></path><g><path d="M810 55h0"></path><path d="M1160 55h0"></path><path d="M810 55h20"></path><g><path d="M830 55h0"></path><path d="M1140 55h0"></path><g class="non-terminal"><path d="M830 55h0"></path><path d="M892 55h0"></path><rect x="830" y="44" width="62" height="22" rx="8" ry="8"></rect><text x="861" y="59">else</text></g><path d="M892 55h10"></path><path d="M902 55h10"></path><g class="terminal"><path d="M912 55h0"></path><path d="M998 55h0"></path><rect x="912" y="44" width="86" height="22" rx="0" ry="0"></rect><text x="955" y="59">NEWLINE</text></g><path d="M998 55h10"></path><path d="M1008 55h10"></path><g><path d="M1018 55h0"></path><path d="M1140 55h0"></path><path d="M1018 55h10"></path><g class="non-terminal"><path d="M1028 55h0"></path><path d="M1130 55h0"></path><rect x="1028" y="44" width="102" height="22" rx="8" ry="8"></rect><text x="1079" y="59">statement</text></g><path d="M1130 55h10"></path><path d="M1028 55a10 10 0 0 0 -10 10v15a10 10 0 0 0 10 10"></path><g><path d="M1028 90h102"></path></g><path d="M1130 90a10 10 0 0 0 10 -10v-15a10 10 0 0 0 -10 -10"></path></g></g><path d="M1140 55h20"></path></g><path d="M1160 55h20"></path></g><path d="M1180 55h10"></path><g class="non-terminal"><path d="M1190 55h0"></path><path d="M1260 55h0"></path><rect x="1190" y="44" width="70" height="22" rx="8" ry="8"></rect><text x="1225" y="59">endif</text></g></g><path d="M1260 55h20"></path></g><path d="M 1280 55 h 20 m 0 -10 v 20"></path></g></svg>