<?xml version="1.0" standalone="no"?>
<?xml-stylesheet href="light.css" type="text/css"?>
<!DOCTYPE svg PUBLIC "-//W3C//DTD SVG 1.1//EN" "http://www.w3.org/Graphics/SVG/1.1/DTD/svg11.dtd">
<svg xmlns="http://www.w3.org/2000/svg" class="railroad-diagram" width="792" height="110" viewBox="0 0 792 110"><g transform="translate(.5 .5)"><path d="M 20 45 v 20 m 0 -10 h 20.5"></path><g><path d="M40 55h0"></path><path d="M752 55h0"></path><path d="M40 55h20"></path><g><path d="M60 55h0"></path><path d="M732 55h0"></path><g class="terminal"><path d="M60 55h0"></path><path d="M170 55h0"></path><rect x="60" y="44" width="110" height="22" rx="0" ry="0"></rect><text x="115" y="59">IDENTIFIER</text></g><path d="M170 55h10"></path><path d="M180 55h10"></path><g class="terminal"><path d="M190 55h0"></path><path d="M244 55h0"></path><rect x="190" y="44" width="54" height="22" rx="0" ry="0"></rect><text x="217" y="59">'('</text></g><path d="M244 55h10"></path><path d="M254 55h10"></path><g class="non-terminal"><path d="M264 55h0"></path><path d="M374 55h0"></path><rect x="264" y="44" width="110" height="22" rx="8" ry="8"></rect><text x="319" y="59">expression</text></g><path d="M374 55h10"></path><g><path d="M384 55h0"></path><path d="M668 55h0"></path><path d="M384 55a10 10 0 0 0 10 -10v-15a10 10 0 0 1 10 -10"></path><g><path d="M404 20h244"></path></g><path d="M648 20a10 10 0 0 1 10 10v15a10 10 0 0 0 10 10"></path><path d="M384 55h20"></path><g><path d="M404 55h0"></path><path d="M648 55h0"></path><path d="M404 55h10"></path><g><path d="M414 55h0"></path><path d="M638 55h0"></path><path d="M414 55h20"></path><g><path d="M434 55h0"></path><path d="M618 55h0"></path><g class="terminal"><path d="M434 55h0"></path><path d="M488 55h0"></path><rect x="434" y="44" width="54" height="22" rx="0" ry="0"></rect><text x="461" y="59">','</text></g><path d="M488 55h10"></path><path d="M498 55h10"></path><g class="non-terminal"><path d="M508 55h0"></path><path d="M618 55h0"></path><rect x="508" y="44" width="110" height="22" rx="8" ry="8"></rect><text x="563" y="59">expression</text></g></g><path d="M618 55h20"></path></g><path d="M638 55h10"></path><path d="M414 55a10 10 0 0 0 -10 10v15a10 10 0 0 0 10 10"></path><g><path d="M414 90h224"></path></g><path d="M638 90a10 10 0 0 0 10 -10v-15a10 10 0 0 0 -10 -10"></path></g><path d="M648 55h20"></path></g><path d="M668 55h10"></path><g class="terminal"><path d="M678 55h0"></path><path d="M732 55h0"></path><rect x="678" y="44" width="54" height="22" rx="0" ry="0"></rect><text x="705" y="59">')'</text></g></g><path d="M732 55h20"></path></g><path d="M 752 55 h 20 m 0 -10 v 20"></path></g></svg>