<?xml version="1.0" standalone="no"?>
<?xml-stylesheet href="light.css" type="text/css"?>
<!DOCTYPE svg PUBLIC "-//W3C//DTD SVG 1.1//EN" "http://www.w3.org/Graphics/SVG/1.1/DTD/svg11.dtd">
<svg xmlns="http://www.w3.org/2000/svg" class="railroad-diagram" width="386" height="132" viewBox="0 0 386 132"><g transform="translate(.5 .5)"><path d="M 20 21 v 20 m 0 -10 h 20.5"></path><g><path d="M40 31h0"></path><path d="M346 31h0"></path><path d="M40 31h20"></path><g><path d="M60 31h0"></path><path d="M326 31h0"></path><g class="terminal"><path d="M60 31h0"></path><path d="M114 31h0"></path><rect x="60" y="20" width="54" height="22" rx="0" ry="0"></rect><text x="87" y="35">'#'</text></g><path d="M114 31h10"></path><path d="M124 31h10"></path><g><path d="M134 31h0"></path><path d="M326 31h0"></path><path d="M134 31h10"></path><g><path d="M144 31h0"></path><path d="M316 31h0"></path><g><path d="M144 31h0"></path><path d="M180 31h0"></path><text x="162" y="36" class="comment">not</text></g><path d="M180 31h10"></path><g><path d="M190 31h0"></path><path d="M316 31h0"></path><path d="M190 31h20"></path><g class="terminal"><path d="M210 31h16"></path><path d="M280 31h16"></path><rect x="226" y="20" width="54" height="22" rx="0" ry="0"></rect><text x="253" y="35">'#'</text></g><path d="M296 31h20"></path><path d="M190 31a10 10 0 0 1 10 10v26a10 10 0 0 0 10 10"></path><g class="terminal"><path d="M210 77h0"></path><path d="M296 77h0"></path><rect x="210" y="66" width="86" height="22" rx="0" ry="0"></rect><text x="253" y="81">NEWLINE</text></g><path d="M296 77a10 10 0 0 0 10 -10v-26a10 10 0 0 1 10 -10"></path></g></g><path d="M316 31h10"></path><path d="M144 31a10 10 0 0 0 -10 10v61a10 10 0 0 0 10 10"></path><g><path d="M144 112h172"></path></g><path d="M316 112a10 10 0 0 0 10 -10v-61a10 10 0 0 0 -10 -10"></path></g></g><path d="M326 31h20"></path></g><path d="M 346 31 h 20 m 0 -10 v 20"></path></g></svg>