<?xml version="1.0" standalone="no"?>
<?xml-stylesheet href="light.css" type="text/css"?>
<!DOCTYPE svg PUBLIC "-//W3C//DTD SVG 1.1//EN" "http://www.w3.org/Graphics/SVG/1.1/DTD/svg11.dtd">
<svg xmlns="http://www.w3.org/2000/svg" class="railroad-diagram" width="270" height="338" viewBox="0 0 270 338"><g transform="translate(.5 .5)"><path d="M 20 21 v 20 m 10 -20 v 20 m -10 -10 h 20.5"></path><g><path d="M40 31h0"></path><path d="M230 31h0"></path><path d="M40 31h20"></path><g><path d="M60 31h40"></path><path d="M170 31h40"></path><g class="terminal"><path d="M100 31h0"></path><path d="M170 31h0"></path><rect x="100" y="20" width="70" height="22" rx="0" ry="0"></rect><text x="135" y="35">[0-9]</text></g></g><path d="M210 31h20"></path><path d="M40 31a10 10 0 0 1 10 10v26a10 10 0 0 0 10 10"></path><g><path d="M60 77h0"></path><path d="M210 77h0"></path><g class="terminal"><path d="M60 77h0"></path><path d="M210 77h0"></path><rect x="60" y="66" width="150" height="22" rx="0" ry="0"></rect><text x="135" y="81">[\u0300-\u036F]</text></g></g><path d="M210 77a10 10 0 0 0 10 -10v-26a10 10 0 0 1 10 -10"></path><path d="M40 31a10 10 0 0 1 10 10v72a10 10 0 0 0 10 10"></path><g><path d="M60 123h0"></path><path d="M210 123h0"></path><g class="terminal"><path d="M60 123h0"></path><path d="M210 123h0"></path><rect x="60" y="112" width="150" height="22" rx="0" ry="0"></rect><text x="135" y="127">[\u1DC0-\u1DFF]</text></g></g><path d="M210 123a10 10 0 0 0 10 -10v-72a10 10 0 0 1 10 -10"></path><path d="M40 31a10 10 0 0 1 10 10v118a10 10 0 0 0 10 10"></path><g><path d="M60 169h0"></path><path d="M210 169h0"></path><g class="terminal"><path d="M60 169h0"></path><path d="M210 169h0"></path><rect x="60" y="158" width="150" height="22" rx="0" ry="0"></rect><text x="135" y="173">[\u20D0-\u20FF]</text></g></g><path d="M210 169a10 10 0 0 0 10 -10v-118a10 10 0 0 1 10 -10"></path><path d="M40 31a10 10 0 0 1 10 10v164a10 10 0 0 0 10 10"></path><g><path d="M60 215h0"></path><path d="M210 215h0"></path><g class="terminal"><path d="M60 215h0"></path><path d="M210 215h0"></path><rect x="60" y="204" width="150" height="22" rx="0" ry="0"></rect><text x="135" y="219">[\uFE20-\uFE2F]</text></g></g><path d="M210 215a10 10 0 0 0 10 -10v-164a10 10 0 0 1 10 -10"></path><path d="M40 31a10 10 0 0 1 10 10v210a10 10 0 0 0 10 10"></path><g><path d="M60 261h0"></path><path d="M210 261h0"></path><g class="terminal"><path d="M60 261h0"></path><path d="M210 261h0"></path><rect x="60" y="250" width="150" height="22" rx="0" ry="0"></rect><text x="135" y="265">IDENTIFIER_HEAD</text></g></g><path d="M210 261a10 10 0 0 0 10 -10v-210a10 10 0 0 1 10 -10"></path><path d="M40 31a10 10 0 0 1 10 10v256a10 10 0 0 0 10 10"></path><g><path d="M60 307h48"></path><path d="M162 307h48"></path><g class="terminal"><path d="M108 307h0"></path><path d="M162 307h0"></path><rect x="108" y="296" width="54" height="22" rx="0" ry="0"></rect><text x="135" y="311">'.'</text></g></g><path d="M210 307a10 10 0 0 0 10 -10v-256a10 10 0 0 1 10 -10"></path></g><path d="M 230 31 h 20 m -10 -10 v 20 m 10 -20 v 20"></path></g></svg>