<?xml version="1.0" standalone="no"?>
<?xml-stylesheet href="light.css" type="text/css"?>
<!DOCTYPE svg PUBLIC "-//W3C//DTD SVG 1.1//EN" "http://www.w3.org/Graphics/SVG/1.1/DTD/svg11.dtd">
<svg xmlns="http://www.w3.org/2000/svg" class="railroad-diagram" width="530" height="110" viewBox="0 0 530 110"><g transform="translate(.5 .5)"><path d="M 20 45 v 20 m 10 -20 v 20 m -10 -10 h 20.5"></path><g><path d="M40 55h0"></path><path d="M490 55h0"></path><path d="M40 55h20"></path><g><path d="M60 55h0"></path><path d="M470 55h0"></path><g class="terminal"><path d="M60 55h0"></path><path d="M210 55h0"></path><rect x="60" y="44" width="150" height="22" rx="0" ry="0"></rect><text x="135" y="59">IDENTIFIER HEAD</text></g><path d="M210 55h10"></path><g><path d="M220 55h0"></path><path d="M470 55h0"></path><path d="M220 55a10 10 0 0 0 10 -10v-15a10 10 0 0 1 10 -10"></path><g><path d="M240 20h210"></path></g><path d="M450 20a10 10 0 0 1 10 10v15a10 10 0 0 0 10 10"></path><path d="M220 55h20"></path><g><path d="M240 55h0"></path><path d="M450 55h0"></path><path d="M240 55h10"></path><g class="terminal"><path d="M250 55h0"></path><path d="M440 55h0"></path><rect x="250" y="44" width="190" height="22" rx="0" ry="0"></rect><text x="345" y="59">IDENTIFIER CHARACTER</text></g><path d="M440 55h10"></path><path d="M250 55a10 10 0 0 0 -10 10v15a10 10 0 0 0 10 10"></path><g><path d="M250 90h190"></path></g><path d="M440 90a10 10 0 0 0 10 -10v-15a10 10 0 0 0 -10 -10"></path></g><path d="M450 55h20"></path></g></g><path d="M470 55h20"></path></g><path d="M 490 55 h 20 m -10 -10 v 20 m 10 -20 v 20"></path></g></svg>