<?xml version="1.0" standalone="no"?>
<?xml-stylesheet href="light.css" type="text/css"?>
<!DOCTYPE svg PUBLIC "-//W3C//DTD SVG 1.1//EN" "http://www.w3.org/Graphics/SVG/1.1/DTD/svg11.dtd">
<svg xmlns="http://www.w3.org/2000/svg" class="railroad-diagram" width="568" height="108" viewBox="0 0 568 108"><g transform="translate(.5 .5)"><path d="M 20 21 v 20 m 0 -10 h 20.5"></path><g><path d="M40 31h0"></path><path d="M528 31h0"></path><path d="M40 31h20"></path><g><path d="M60 31h0"></path><path d="M508 31h0"></path><g class="terminal"><path d="M60 31h0"></path><path d="M122 31h0"></path><rect x="60" y="20" width="62" height="22" rx="0" ry="0"></rect><text x="91" y="35">'&lt;&lt;'</text></g><path d="M122 31h10"></path><path d="M132 31h10"></path><g class="terminal"><path d="M142 31h0"></path><path d="M220 31h0"></path><rect x="142" y="20" width="78" height="22" rx="0" ry="0"></rect><text x="181" y="35">'jump'</text></g><path d="M220 31h10"></path><g><path d="M230 31h0"></path><path d="M436 31h0"></path><path d="M230 31h20"></path><g><path d="M250 31h28"></path><path d="M388 31h28"></path><g class="terminal"><path d="M278 31h0"></path><path d="M388 31h0"></path><rect x="278" y="20" width="110" height="22" rx="0" ry="0"></rect><text x="333" y="35">IDENTIFIER</text></g></g><path d="M416 31h20"></path><path d="M230 31a10 10 0 0 1 10 10v26a10 10 0 0 0 10 10"></path><g><path d="M250 77h0"></path><path d="M416 77h0"></path><g class="non-terminal"><path d="M250 77h0"></path><path d="M416 77h0"></path><rect x="250" y="66" width="166" height="22" rx="8" ry="8"></rect><text x="333" y="81">interpolated_text</text></g></g><path d="M416 77a10 10 0 0 0 10 -10v-26a10 10 0 0 1 10 -10"></path></g><path d="M436 31h10"></path><g class="terminal"><path d="M446 31h0"></path><path d="M508 31h0"></path><rect x="446" y="20" width="62" height="22" rx="0" ry="0"></rect><text x="477" y="35">'&gt;&gt;'</text></g></g><path d="M508 31h20"></path></g><path d="M 528 31 h 20 m 0 -10 v 20"></path></g></svg>