<?xml version="1.0" standalone="no"?>
<?xml-stylesheet href="light.css" type="text/css"?>
<!DOCTYPE svg PUBLIC "-//W3C//DTD SVG 1.1//EN" "http://www.w3.org/Graphics/SVG/1.1/DTD/svg11.dtd">
<svg xmlns="http://www.w3.org/2000/svg" class="railroad-diagram" width="672" height="62" viewBox="0 0 672 62"><g transform="translate(.5 .5)"><path d="M 20 21 v 20 m 0 -10 h 20.5"></path><g><path d="M40 31h0"></path><path d="M632 31h0"></path><path d="M40 31h20"></path><g><path d="M60 31h0"></path><path d="M612 31h0"></path><g class="non-terminal"><path d="M60 31h0"></path><path d="M138 31h0"></path><rect x="60" y="20" width="78" height="22" rx="8" ry="8"></rect><text x="99" y="35">header</text></g><path d="M138 31h10"></path><path d="M148 31h10"></path><g class="terminal"><path d="M158 31h0"></path><path d="M228 31h0"></path><rect x="158" y="20" width="70" height="22" rx="0" ry="0"></rect><text x="193" y="35">'---'</text></g><path d="M228 31h10"></path><path d="M238 31h10"></path><g class="terminal"><path d="M248 31h0"></path><path d="M334 31h0"></path><rect x="248" y="20" width="86" height="22" rx="0" ry="0"></rect><text x="291" y="35">NEWLINE</text></g><path d="M334 31h10"></path><path d="M344 31h10"></path><g class="non-terminal"><path d="M354 31h0"></path><path d="M416 31h0"></path><rect x="354" y="20" width="62" height="22" rx="8" ry="8"></rect><text x="385" y="35">body</text></g><path d="M416 31h10"></path><path d="M426 31h10"></path><g class="terminal"><path d="M436 31h0"></path><path d="M506 31h0"></path><rect x="436" y="20" width="70" height="22" rx="0" ry="0"></rect><text x="471" y="35">'==='</text></g><path d="M506 31h10"></path><path d="M516 31h10"></path><g class="terminal"><path d="M526 31h0"></path><path d="M612 31h0"></path><rect x="526" y="20" width="86" height="22" rx="0" ry="0"></rect><text x="569" y="35">NEWLINE</text></g></g><path d="M612 31h20"></path></g><path d="M 632 31 h 20 m 0 -10 v 20"></path></g></svg>