<?xml version="1.0" standalone="no"?>
<?xml-stylesheet href="light.css" type="text/css"?>
<!DOCTYPE svg PUBLIC "-//W3C//DTD SVG 1.1//EN" "http://www.w3.org/Graphics/SVG/1.1/DTD/svg11.dtd">
<svg xmlns="http://www.w3.org/2000/svg" class="railroad-diagram" width="434" height="110" viewBox="0 0 434 110"><g transform="translate(.5 .5)"><path d="M 20 45 v 20 m 0 -10 h 20.5"></path><g><path d="M40 55h0"></path><path d="M394 55h0"></path><path d="M40 55h20"></path><g><path d="M60 55h0"></path><path d="M374 55h0"></path><g><path d="M60 55h0"></path><path d="M374 55h0"></path><path d="M60 55h10"></path><g><path d="M70 55h0"></path><path d="M364 55h0"></path><path d="M70 55h20"></path><g><path d="M90 55h0"></path><path d="M344 55h0"></path><g class="non-terminal"><path d="M90 55h0"></path><path d="M168 55h0"></path><rect x="90" y="44" width="78" height="22" rx="8" ry="8"></rect><text x="129" y="59">option</text></g><path d="M168 55h10"></path><g><path d="M178 55h0"></path><path d="M344 55h0"></path><path d="M178 55a10 10 0 0 0 10 -10v-15a10 10 0 0 1 10 -10"></path><g><path d="M198 20h126"></path></g><path d="M324 20a10 10 0 0 1 10 10v15a10 10 0 0 0 10 10"></path><path d="M178 55h20"></path><g class="non-terminal"><path d="M198 55h0"></path><path d="M324 55h0"></path><rect x="198" y="44" width="126" height="22" rx="8" ry="8"></rect><text x="261" y="59">option_block</text></g><path d="M324 55h20"></path></g></g><path d="M344 55h20"></path></g><path d="M364 55h10"></path><path d="M70 55a10 10 0 0 0 -10 10v15a10 10 0 0 0 10 10"></path><g><path d="M70 90h294"></path></g><path d="M364 90a10 10 0 0 0 10 -10v-15a10 10 0 0 0 -10 -10"></path></g></g><path d="M374 55h20"></path></g><path d="M 394 55 h 20 m 0 -10 v 20"></path></g></svg>