<?xml version="1.0" standalone="no"?>
<?xml-stylesheet href="light.css" type="text/css"?>
<!DOCTYPE svg PUBLIC "-//W3C//DTD SVG 1.1//EN" "http://www.w3.org/Graphics/SVG/1.1/DTD/svg11.dtd">
<svg xmlns="http://www.w3.org/2000/svg" class="railroad-diagram" width="478" height="86" viewBox="0 0 478 86"><g transform="translate(.5 .5)"><path d="M 20 21 v 20 m 0 -10 h 20.5"></path><g><path d="M40 31h0"></path><path d="M438 31h0"></path><path d="M40 31h20"></path><g><path d="M60 31h0"></path><path d="M418 31h0"></path><g><path d="M60 31h0"></path><path d="M158 31h0"></path><path d="M60 31h10"></path><g class="terminal"><path d="M70 31h0"></path><path d="M148 31h0"></path><rect x="70" y="20" width="78" height="22" rx="0" ry="0"></rect><text x="109" y="35">INDENT</text></g><path d="M148 31h10"></path><path d="M70 31a10 10 0 0 0 -10 10v15a10 10 0 0 0 10 10"></path><g><path d="M70 66h78"></path></g><path d="M148 66a10 10 0 0 0 10 -10v-15a10 10 0 0 0 -10 -10"></path></g><path d="M158 31h10"></path><path d="M168 31h10"></path><g><path d="M178 31h0"></path><path d="M300 31h0"></path><path d="M178 31h10"></path><g class="non-terminal"><path d="M188 31h0"></path><path d="M290 31h0"></path><rect x="188" y="20" width="102" height="22" rx="8" ry="8"></rect><text x="239" y="35">statement</text></g><path d="M290 31h10"></path><path d="M188 31a10 10 0 0 0 -10 10v15a10 10 0 0 0 10 10"></path><g><path d="M188 66h102"></path></g><path d="M290 66a10 10 0 0 0 10 -10v-15a10 10 0 0 0 -10 -10"></path></g><path d="M300 31h10"></path><path d="M310 31h10"></path><g><path d="M320 31h0"></path><path d="M418 31h0"></path><path d="M320 31h10"></path><g class="terminal"><path d="M330 31h0"></path><path d="M408 31h0"></path><rect x="330" y="20" width="78" height="22" rx="0" ry="0"></rect><text x="369" y="35">DEDENT</text></g><path d="M408 31h10"></path><path d="M330 31a10 10 0 0 0 -10 10v15a10 10 0 0 0 10 10"></path><g><path d="M330 66h78"></path></g><path d="M408 66a10 10 0 0 0 10 -10v-15a10 10 0 0 0 -10 -10"></path></g></g><path d="M418 31h20"></path></g><path d="M 438 31 h 20 m 0 -10 v 20"></path></g></svg>