<?xml version="1.0" standalone="no"?>
<?xml-stylesheet href="light.css" type="text/css"?>
<!DOCTYPE svg PUBLIC "-//W3C//DTD SVG 1.1//EN" "http://www.w3.org/Graphics/SVG/1.1/DTD/svg11.dtd">
<svg xmlns="http://www.w3.org/2000/svg" class="railroad-diagram" width="964" height="86" viewBox="0 0 964 86"><g transform="translate(.5 .5)"><path d="M 20 45 v 20 m 0 -10 h 20.5"></path><g><path d="M40 55h0"></path><path d="M924 55h0"></path><path d="M40 55h20"></path><g><path d="M60 55h0"></path><path d="M904 55h0"></path><g class="terminal"><path d="M60 55h0"></path><path d="M122 55h0"></path><rect x="60" y="44" width="62" height="22" rx="0" ry="0"></rect><text x="91" y="59">'-&gt;'</text></g><path d="M122 55h10"></path><path d="M132 55h10"></path><g class="non-terminal"><path d="M142 55h0"></path><path d="M236 55h0"></path><rect x="142" y="44" width="94" height="22" rx="8" ry="8"></rect><text x="189" y="59">dialogue</text></g><path d="M236 55h10"></path><g><path d="M246 55h0"></path><path d="M682 55h0"></path><path d="M246 55a10 10 0 0 0 10 -10v-15a10 10 0 0 1 10 -10"></path><g><path d="M266 20h396"></path></g><path d="M662 20a10 10 0 0 1 10 10v15a10 10 0 0 0 10 10"></path><path d="M246 55h20"></path><g><path d="M266 55h0"></path><path d="M662 55h0"></path><path d="M266 55h20"></path><g><path d="M286 55h0"></path><path d="M642 55h0"></path><g class="terminal"><path d="M286 55h0"></path><path d="M348 55h0"></path><rect x="286" y="44" width="62" height="22" rx="0" ry="0"></rect><text x="317" y="59">'&lt;&lt;'</text></g><path d="M348 55h10"></path><path d="M358 55h10"></path><g class="terminal"><path d="M368 55h0"></path><path d="M430 55h0"></path><rect x="368" y="44" width="62" height="22" rx="0" ry="0"></rect><text x="399" y="59">'if'</text></g><path d="M430 55h10"></path><path d="M440 55h10"></path><g class="non-terminal"><path d="M450 55h0"></path><path d="M560 55h0"></path><rect x="450" y="44" width="110" height="22" rx="8" ry="8"></rect><text x="505" y="59">expression</text></g><path d="M560 55h10"></path><path d="M570 55h10"></path><g class="terminal"><path d="M580 55h0"></path><path d="M642 55h0"></path><rect x="580" y="44" width="62" height="22" rx="0" ry="0"></rect><text x="611" y="59">'&gt;&gt;'</text></g></g><path d="M642 55h20"></path></g><path d="M662 55h20"></path></g><g><path d="M682 55h0"></path><path d="M808 55h0"></path><path d="M682 55a10 10 0 0 0 10 -10v-15a10 10 0 0 1 10 -10"></path><g><path d="M702 20h86"></path></g><path d="M788 20a10 10 0 0 1 10 10v15a10 10 0 0 0 10 10"></path><path d="M682 55h20"></path><g class="non-terminal"><path d="M702 55h0"></path><path d="M788 55h0"></path><rect x="702" y="44" width="86" height="22" rx="8" ry="8"></rect><text x="745" y="59">hashtag</text></g><path d="M788 55h20"></path></g><path d="M808 55h10"></path><g class="terminal"><path d="M818 55h0"></path><path d="M904 55h0"></path><rect x="818" y="44" width="86" height="22" rx="0" ry="0"></rect><text x="861" y="59">NEWLINE</text></g></g><path d="M904 55h20"></path></g><path d="M 924 55 h 20 m 0 -10 v 20"></path></g></svg>