<?xml version="1.0" standalone="no"?>
<?xml-stylesheet href="light.css" type="text/css"?>
<!DOCTYPE svg PUBLIC "-//W3C//DTD SVG 1.1//EN" "http://www.w3.org/Graphics/SVG/1.1/DTD/svg11.dtd">
<svg xmlns="http://www.w3.org/2000/svg" class="railroad-diagram" width="700" height="108" viewBox="0 0 700 108"><g transform="translate(.5 .5)"><path d="M 20 21 v 20 m 0 -10 h 20.5"></path><g><path d="M40 31h0"></path><path d="M660 31h0"></path><path d="M40 31h20"></path><g><path d="M60 31h0"></path><path d="M640 31h0"></path><g class="terminal"><path d="M60 31h0"></path><path d="M122 31h0"></path><rect x="60" y="20" width="62" height="22" rx="0" ry="0"></rect><text x="91" y="35">'&lt;&lt;'</text></g><path d="M122 31h10"></path><path d="M132 31h10"></path><g class="terminal"><path d="M142 31h0"></path><path d="M212 31h0"></path><rect x="142" y="20" width="70" height="22" rx="0" ry="0"></rect><text x="177" y="35">'set'</text></g><path d="M212 31h10"></path><path d="M222 31h10"></path><g class="non-terminal"><path d="M232 31h0"></path><path d="M326 31h0"></path><rect x="232" y="20" width="94" height="22" rx="8" ry="8"></rect><text x="279" y="35">variable</text></g><path d="M326 31h10"></path><g><path d="M336 31h0"></path><path d="M438 31h0"></path><path d="M336 31h20"></path><g><path d="M356 31h0"></path><path d="M418 31h0"></path><g class="terminal"><path d="M356 31h0"></path><path d="M418 31h0"></path><rect x="356" y="20" width="62" height="22" rx="0" ry="0"></rect><text x="387" y="35">'to'</text></g></g><path d="M418 31h20"></path><path d="M336 31a10 10 0 0 1 10 10v26a10 10 0 0 0 10 10"></path><g><path d="M356 77h4"></path><path d="M414 77h4"></path><g class="terminal"><path d="M360 77h0"></path><path d="M414 77h0"></path><rect x="360" y="66" width="54" height="22" rx="0" ry="0"></rect><text x="387" y="81">'='</text></g></g><path d="M418 77a10 10 0 0 0 10 -10v-26a10 10 0 0 1 10 -10"></path></g><path d="M438 31h10"></path><g class="non-terminal"><path d="M448 31h0"></path><path d="M558 31h0"></path><rect x="448" y="20" width="110" height="22" rx="8" ry="8"></rect><text x="503" y="35">expression</text></g><path d="M558 31h10"></path><path d="M568 31h10"></path><g class="terminal"><path d="M578 31h0"></path><path d="M640 31h0"></path><rect x="578" y="20" width="62" height="22" rx="0" ry="0"></rect><text x="609" y="35">'&gt;&gt;'</text></g></g><path d="M640 31h20"></path></g><path d="M 660 31 h 20 m 0 -10 v 20"></path></g></svg>