<?xml version="1.0" standalone="no"?>
<?xml-stylesheet href="light.css" type="text/css"?>
<!DOCTYPE svg PUBLIC "-//W3C//DTD SVG 1.1//EN" "http://www.w3.org/Graphics/SVG/1.1/DTD/svg11.dtd">
<svg xmlns="http://www.w3.org/2000/svg" class="railroad-diagram" width="516" height="316" viewBox="0 0 516 316"><g transform="translate(.5 .5)"><path d="M 20 45 v 20 m 0 -10 h 20.5"></path><g><path d="M40 55h0"></path><path d="M476 55h0"></path><path d="M40 55h20"></path><g><path d="M60 55h0"></path><path d="M456 55h0"></path><g><path d="M60 55h0"></path><path d="M456 55h0"></path><path d="M60 55h20"></path><g><path d="M80 55h0"></path><path d="M436 55h0"></path><g><path d="M80 55h0"></path><path d="M214 55h0"></path><path d="M80 55h20"></path><g><path d="M100 55h0"></path><path d="M194 55h0"></path><g class="non-terminal"><path d="M100 55h0"></path><path d="M194 55h0"></path><rect x="100" y="44" width="94" height="22" rx="8" ry="8"></rect><text x="147" y="59">dialogue</text></g></g><path d="M194 55h20"></path><path d="M80 55a10 10 0 0 1 10 10v26a10 10 0 0 0 10 10"></path><g><path d="M100 101h16"></path><path d="M178 101h16"></path><g class="non-terminal"><path d="M116 101h0"></path><path d="M178 101h0"></path><rect x="116" y="90" width="62" height="22" rx="8" ry="8"></rect><text x="147" y="105">jump</text></g></g><path d="M194 101a10 10 0 0 0 10 -10v-26a10 10 0 0 1 10 -10"></path><path d="M80 55a10 10 0 0 1 10 10v72a10 10 0 0 0 10 10"></path><g><path d="M100 147h16"></path><path d="M178 147h16"></path><g class="non-terminal"><path d="M116 147h0"></path><path d="M178 147h0"></path><rect x="116" y="136" width="62" height="22" rx="8" ry="8"></rect><text x="147" y="151">stop</text></g></g><path d="M194 147a10 10 0 0 0 10 -10v-72a10 10 0 0 1 10 -10"></path><path d="M80 55a10 10 0 0 1 10 10v118a10 10 0 0 0 10 10"></path><g><path d="M100 193h4"></path><path d="M190 193h4"></path><g class="non-terminal"><path d="M104 193h0"></path><path d="M190 193h0"></path><rect x="104" y="182" width="86" height="22" rx="8" ry="8"></rect><text x="147" y="197">command</text></g></g><path d="M194 193a10 10 0 0 0 10 -10v-118a10 10 0 0 1 10 -10"></path></g><g><path d="M214 55h0"></path><path d="M340 55h0"></path><path d="M214 55a10 10 0 0 0 10 -10v-15a10 10 0 0 1 10 -10"></path><g><path d="M234 20h86"></path></g><path d="M320 20a10 10 0 0 1 10 10v15a10 10 0 0 0 10 10"></path><path d="M214 55h20"></path><g class="non-terminal"><path d="M234 55h0"></path><path d="M320 55h0"></path><rect x="234" y="44" width="86" height="22" rx="8" ry="8"></rect><text x="277" y="59">hashtag</text></g><path d="M320 55h20"></path></g><path d="M340 55h10"></path><g class="terminal"><path d="M350 55h0"></path><path d="M436 55h0"></path><rect x="350" y="44" width="86" height="22" rx="0" ry="0"></rect><text x="393" y="59">NEWLINE</text></g></g><path d="M436 55h20"></path></g></g><path d="M456 55h20"></path><path d="M40 55a10 10 0 0 1 10 10v164a10 10 0 0 0 10 10"></path><g><path d="M60 239h135"></path><path d="M321 239h135"></path><g class="non-terminal"><path d="M195 239h0"></path><path d="M321 239h0"></path><rect x="195" y="228" width="126" height="22" rx="8" ry="8"></rect><text x="258" y="243">flow control</text></g></g><path d="M456 239a10 10 0 0 0 10 -10v-164a10 10 0 0 1 10 -10"></path><path d="M40 55a10 10 0 0 1 10 10v210a10 10 0 0 0 10 10"></path><g><path d="M60 285h139"></path><path d="M317 285h139"></path><g class="non-terminal"><path d="M199 285h0"></path><path d="M317 285h0"></path><rect x="199" y="274" width="118" height="22" rx="8" ry="8"></rect><text x="258" y="289">option list</text></g></g><path d="M456 285a10 10 0 0 0 10 -10v-210a10 10 0 0 1 10 -10"></path></g><path d="M 476 55 h 20 m 0 -10 v 20"></path></g></svg>