<?xml version="1.0" standalone="no"?>
<?xml-stylesheet href="light.css" type="text/css"?>
<!DOCTYPE svg PUBLIC "-//W3C//DTD SVG 1.1//EN" "http://www.w3.org/Graphics/SVG/1.1/DTD/svg11.dtd">
<svg xmlns="http://www.w3.org/2000/svg" class="railroad-diagram" width="540" height="62" viewBox="0 0 540 62"><g transform="translate(.5 .5)"><path d="M 20 21 v 20 m 0 -10 h 20.5"></path><g><path d="M40 31h0"></path><path d="M500 31h0"></path><path d="M40 31h20"></path><g><path d="M60 31h0"></path><path d="M480 31h0"></path><g class="terminal"><path d="M60 31h0"></path><path d="M170 31h0"></path><rect x="60" y="20" width="110" height="22" rx="0" ry="0"></rect><text x="115" y="35">IDENTIFIER</text></g><path d="M170 31h10"></path><path d="M180 31h10"></path><g class="terminal"><path d="M190 31h0"></path><path d="M244 31h0"></path><rect x="190" y="20" width="54" height="22" rx="0" ry="0"></rect><text x="217" y="35">':'</text></g><path d="M244 31h10"></path><path d="M254 31h10"></path><g class="terminal"><path d="M264 31h0"></path><path d="M374 31h0"></path><rect x="264" y="20" width="110" height="22" rx="0" ry="0"></rect><text x="319" y="35">IDENTIFIER</text></g><path d="M374 31h10"></path><path d="M384 31h10"></path><g class="terminal"><path d="M394 31h0"></path><path d="M480 31h0"></path><rect x="394" y="20" width="86" height="22" rx="0" ry="0"></rect><text x="437" y="35">NEWLINE</text></g></g><path d="M480 31h20"></path></g><path d="M 500 31 h 20 m 0 -10 v 20"></path></g></svg>