<?xml version="1.0" standalone="no"?>
<?xml-stylesheet href="./light.css" type="text/css"?>
<!DOCTYPE svg PUBLIC "-//W3C//DTD SVG 1.1//EN" "http://www.w3.org/Graphics/SVG/1.1/DTD/svg11.dtd">
<svg xmlns="http://www.w3.org/2000/svg" class="railroad-diagram" width="432" height="110" viewBox="0 0 432 110"><g transform="translate(.5 .5)"><path d="M 20 45 v 20 m 0 -10 h 20.5"></path><g><path d="M40 55h0"></path><path d="M392 55h0"></path><path d="M40 55h20"></path><g><path d="M60 55h0"></path><path d="M372 55h0"></path><g><path d="M60 55h0"></path><path d="M206 55h0"></path><path d="M60 55a10 10 0 0 0 10 -10v-15a10 10 0 0 1 10 -10"></path><g><path d="M80 20h106"></path></g><path d="M186 20a10 10 0 0 1 10 10v15a10 10 0 0 0 10 10"></path><path d="M60 55h20"></path><g><path d="M80 55h0"></path><path d="M186 55h0"></path><path d="M80 55h10"></path><g class="non-terminal"><path d="M90 55h0"></path><path d="M176 55h0"></path><rect x="90" y="44" width="86" height="22" rx="8" ry="8"></rect><text x="133" y="59">filetag</text></g><path d="M176 55h10"></path><path d="M90 55a10 10 0 0 0 -10 10v15a10 10 0 0 0 10 10"></path><g><path d="M90 90h86"></path></g><path d="M176 90a10 10 0 0 0 10 -10v-15a10 10 0 0 0 -10 -10"></path></g><path d="M186 55h20"></path></g><path d="M206 55h10"></path><g><path d="M216 55h0"></path><path d="M298 55h0"></path><path d="M216 55h10"></path><g class="non-terminal"><path d="M226 55h0"></path><path d="M288 55h0"></path><rect x="226" y="44" width="62" height="22" rx="8" ry="8"></rect><text x="257" y="59">node</text></g><path d="M288 55h10"></path><path d="M226 55a10 10 0 0 0 -10 10v15a10 10 0 0 0 10 10"></path><g><path d="M226 90h62"></path></g><path d="M288 90a10 10 0 0 0 10 -10v-15a10 10 0 0 0 -10 -10"></path></g><path d="M298 55h10"></path><path d="M308 55h10"></path><g class="terminal"><path d="M318 55h0"></path><path d="M372 55h0"></path><rect x="318" y="44" width="54" height="22" rx="0" ry="0"></rect><text x="345" y="59">EOF</text></g></g><path d="M372 55h20"></path></g><path d="M 392 55 h 20 m 0 -10 v 20"></path></g></svg>